<?xml version="1.0" encoding="utf-8"?>
<svg viewBox="136.6996 159.133 167.9165 101" width="166.917" height="101" xmlns="http://www.w3.org/2000/svg">
    <style>
    /* Target all ellipses inside this SVG */
    #my-svg ellipse {
      stroke: currentColor; /* This uses the current color of the SVG element */
      stroke-width: 2; /* Example stroke width */
    }
  </style>
  <ellipse style="fill: rgba(255, 255, 255, 0);" cx="219.767" cy="211.133" rx="50" ry="50" transform="matrix(0.9999999999999999, 0, 0, 0.9999999999999999, 7.105427357601002e-15, 0)"/>
  <ellipse style="fill: rgba(216, 216, 216, 0);" cx="220.475" cy="171.265" rx="4.962" ry="4.962" transform="matrix(0.9999999999999999, 0, 0, 0.9999999999999999, 7.105427357601002e-15, 0)"/>
  <ellipse style="fill: rgba(216, 216, 216, 0);" cx="255.28" cy="231.076" rx="4.962" ry="4.962" transform="matrix(0.9999999999999999, 0, 0, 0.9999999999999999, 7.105427357601002e-15, 0)"/>
  <ellipse style="fill: rgba(216, 216, 216, 0);" cx="186.211" cy="231.425" rx="4.962" ry="4.962" transform="matrix(0.9999999999999999, 0, 0, 0.9999999999999999, 7.105427357601002e-15, 0)"/>
  <rect style=" fill: rgba(216, 216, 216, 0);" x="192.113" y="212.509" width="3.542" height="9.93" rx="1.8" ry="1.8" transform="matrix(0.9999999999999999, 0, 0, 0.9999999999999999, 7.105427357601002e-15, 0)"/>
  <ellipse style="" cx="230.683" cy="188.661" rx="1" ry="1" transform="matrix(0.9999999999999999, 0, 0, 0.9999999999999999, 7.105427357601002e-15, 0)"/>
  <ellipse style="" cx="210.683" cy="188.661" rx="1" ry="1" transform="matrix(0.9999999999999999, 0, 0, 0.9999999999999999, 7.105427357601002e-15, 0)"/>
  <ellipse style="" cx="214.683" cy="188.661" rx="1" ry="1" transform="matrix(0.9999999999999999, 0, 0, 0.9999999999999999, 7.105427357601002e-15, 0)"/>
  <ellipse style="" cx="218.683" cy="188.661" rx="1" ry="1" transform="matrix(0.9999999999999999, 0, 0, 0.9999999999999999, 7.105427357601002e-15, 0)"/>
  <ellipse style="" cx="222.683" cy="188.661" rx="1" ry="1" transform="matrix(0.9999999999999999, 0, 0, 0.9999999999999999, 7.105427357601002e-15, 0)"/>
  <ellipse style="" cx="226.683" cy="188.661" rx="1" ry="1" transform="matrix(0.9999999999999999, 0, 0, 0.9999999999999999, 7.105427357601002e-15, 0)"/>
  <rect style=" fill: rgba(216, 216, 216, 0);" x="206.998" y="185.186" width="27.246" height="7.106" rx="3.6" ry="3.6" transform="matrix(0.9999999999999999, 0, 0, 0.9999999999999999, 7.105427357601002e-15, 0)"/>
  <rect style=" fill: rgba(216, 216, 216, 0);" x="244.962" y="212.509" width="3.542" height="9.93" rx="1.8" ry="1.8" transform="matrix(0.9999999999999999, 0, 0, 0.9999999999999999, 7.105427357601002e-15, 0)"/>
  <path d="M 29.676 88.973 H 69.823 L 69.823 84.336 L 82.189 90.519 L 69.823 96.702 L 69.823 92.065 H 29.676 V 88.973 Z" style=" stroke-width: 0px;" transform="matrix(-0.965926, -0.258819, 0.258819, -0.965926, 308.252577, 326.478491)"/>
  <path d="M 29.676 88.973 H 69.823 L 69.823 84.336 L 82.189 90.519 L 69.823 96.702 L 69.823 92.065 H 29.676 V 88.973 Z" style=" stroke-width: 0px;" transform="matrix(0.965926, -0.258819, 0.258819, 0.965926, 86.207016, 151.609284)"/>
</svg>
