<svg width="366" height="561" viewBox="0 0 366 561" fill="none" xmlns="http://www.w3.org/2000/svg">
<path d="M349.236 303.53L182.996 0.827881L16.9727 303.53C4.44619 331.289 -0.924692 361.745 1.35042 392.114C3.62554 422.484 13.4743 451.799 29.9969 477.382C46.5195 502.965 69.189 524 95.9348 538.565C122.681 553.13 152.65 560.762 183.104 560.762C213.559 560.762 243.528 553.13 270.274 538.565C297.02 524 319.689 502.965 336.212 477.382C352.734 451.799 362.583 422.484 364.858 392.114C367.133 361.745 361.763 331.289 349.236 303.53ZM337.436 411.083C337.436 411.3 337.436 411.494 337.436 411.687C332.176 441.851 317.741 469.659 296.099 491.32C293.034 494.36 289.825 497.256 286.446 500.055L285.891 500.538C282.73 503.192 279.424 505.654 276.046 508.043C275.515 508.405 275.057 508.839 274.526 509.201C249.283 526.511 219.321 535.627 188.715 535.311H188.112C175.467 535.021 175.515 516.296 188.112 515.451C189.238 515.354 190.396 515.306 191.587 515.306C222.257 515.62 246.895 505.991 265.911 490.982C268.324 489.124 270.592 487.217 272.764 485.19C274.936 483.163 277.422 481.522 279.666 479.544C297.885 463.569 311.857 441.103 317.141 410.89C317.334 409.732 317.624 408.598 317.89 407.512C321.051 395.253 339.463 398.607 337.436 411.083Z" fill="#87CEEB"/>
</svg>
