<svg id="Layer_1" data-name="Layer 1" xmlns="http://www.w3.org/2000/svg" viewBox="0 0 1920 1080">
<defs>
<style>.cls-1{fill:#1d1d1b;}
</style>
</defs>
<path class="cls-1" d="M559.67,368.13c0-23.57,20.25-39.5,50.79-39.5,14.94,0,28.54,3.32,40.16,10.95,6.64,4.32,9.3,8.3,9.3,11.95,0,4-3,9.3-8.63,9.3-2.66,0-5-2-11-5.64a56.65,56.65,0,0,0-30.87-9c-19.25,0-29.87,9-29.87,20.92,0,32.53,82.32,20.58,82.32,70.37,0,25.23-21.24,42.16-53.11,42.16-16.27,0-31.21-4.65-43.49-13.28-5.64-3.65-8.3-7.31-8.3-11,0-4,3.32-9.29,9-9.29,2.66,0,5,2.32,10,5.31,10.63,7,20.58,10.62,33.2,10.62,19.59,0,32.53-9.29,32.53-23.57C641.66,404,559.67,416.26,559.67,368.13Z"/>
<path class="cls-1" d="M738.59,338.92v13.61c8-13.28,24.56-23.57,47.8-23.57,24.23,0,38.5,11,45.14,29.21,8.63-17.26,26.89-29.21,51.12-29.21,18.59,0,32.2,7,40.17,18.59,6.31,9.29,9.63,22.24,9.63,39.5v82.33q0,9-10,9c-7,0-10.29-3-10.29-9V390c0-11-1.66-22.24-7.64-30.54-5.64-8.63-15.27-12.61-28.21-12.61-18.93,0-32.87,9.29-40.5,22.57v99.92q0,9-10,9c-7,0-10.29-3-10.29-9V387.05c0-10.95-2.32-20.58-7-27.55-6-8.3-15.94-12.61-28.55-12.61-18.92,0-33.2,9.62-40.5,22.57v99.92q0,9-10,9c-7,0-10.29-3-10.29-9V338.92c0-6,3-9,10-9S738.92,333.28,738.59,338.92Z"/>
<path class="cls-1" d="M1045.63,346.22a59,59,0,0,0-32.19,9c-5,3.31-7.31,5.64-10.3,5.64-5.31,0-8.63-5.64-8.63-9.63,0-3.32,2.66-6.64,9.63-10.95,11.62-7.31,25.89-11.62,43.15-11.62,20.92,0,35.85,6.31,44.15,18.26,5.65,8,8.3,19.58,8.3,35.85v86.64c0,6-2.65,9-9.63,9-6.3,0-9.29-2.33-9.29-7V461.08c-12,12.28-27.22,18.25-46.14,18.25-30.54,0-47.47-16.59-47.47-40.49,0-30.21,27.88-45.15,92.61-50.13V383.4C1079.82,358.84,1070.53,346.22,1045.63,346.22Zm-36.51,91.29c0,13.94,9.63,24.89,31.2,24.89,14.61,0,27.89-5.31,39.5-15.6V402.65C1030.37,407.63,1009.12,416.6,1009.12,437.51Z"/>
<path class="cls-1" d="M1186.71,469.38q0,9-10,9c-7,0-10.29-3-10.29-9V338.92c0-5.31,2-9,10.29-9,7.64,0,9,3.32,9,7.3v20.91c8.63-19.25,24.24-28.88,42.49-28.88,6,0,9.63,2,9.63,9.3,0,8-4,8.63-11.62,9.29-9.29.67-27.55,1-39.5,28.88Z"/>
<path class="cls-1" d="M1373.59,464.4c0,2.65-2,5.64-6.31,8.3-7.3,4.31-17.26,7-27.55,7-15.93,0-28.88-6.31-35.19-18.26-6-11-6.3-23.57-6.3-38.51V350.21h-21.58c-6,0-9-3-9-8.63s3-8.64,9-8.64h21.58V293.77c0-6,3.32-9,10.29-9q10,0,10,9v39.17h42.15c6,0,9,3,9,8.64s-3,8.63-9,8.63h-42.15V422.9c0,10,0,21.25,4,28.88,3.65,6.31,10,10.29,19.92,10.29a39.11,39.11,0,0,0,16.26-4c3.32-1.66,5.31-3,7.3-3C1371.27,455.1,1373.59,461.08,1373.59,464.4Z"/>
<path class="cls-1" d="M415.11,764.43c0,3-1.33,4.32-4,4.32-3,0-4.32-1.33-4.32-4.32V680.12c0-12.62-1.66-26.22-9-36.18S378.93,629,363,629c-25.23,0-42.49,13.28-50.46,27.88V764.43c0,3-1.33,4.32-4,4.32-3,0-4.31-1.33-4.31-4.32V542.69c0-3,1.33-4.31,4-4.31,3,0,4.32,1.33,4.32,4.31V646.26c8.3-13.28,25.89-24.9,50.79-24.9,18.59,0,33.19,6,41.82,17.93q10,13.44,10,39.83Z"/>
<path class="cls-1" d="M594.7,626.34a37.23,37.23,0,0,1-1.33,7.64c-15.27,63.73-56.77,154-99.59,196.84-2.32,2.33-4.31,4.32-6.64,4.32a4.28,4.28,0,0,1-4-4c0-2.33,2.65-4.32,4.64-6.31,15.61-14.94,32.87-39.83,41.83-56.1L469.88,630a14.31,14.31,0,0,1-1.33-4.64c0-1.66,1-2.66,3.32-2.66,3,0,4.32,1,6.31,5.65l57.09,132.44c17.6-31.86,41.5-89.29,50.13-128.79,1.33-6.31,2.32-9.3,6-9.3C593.7,622.69,594.7,624,594.7,626.34Z"/>
<path class="cls-1" d="M708.55,621.36c16.6,0,30.87,4.65,43.15,13.95V542.69c0-3,1.33-4.31,4-4.31,3,0,4.31,1.33,4.31,4.31V764.43c0,3-1.33,4.32-4,4.32-3,0-4.32-1.33-4.32-4.32V751.16c-12.61,12.61-28.21,18.92-46.47,18.92-39.5,0-66.06-29.88-66.06-74C639.17,650.91,667.06,621.36,708.55,621.36Zm-.33,7.64c-36.19,0-59.75,26.22-59.75,66.72s22.57,66.72,57.09,66.72c17.26,0,32.53-6.64,46.14-19.58V644.6A67.19,67.19,0,0,0,708.22,629Z"/>
<path class="cls-1" d="M842.65,764.43c0,3-1.33,4.32-4,4.32-3,0-4.32-1.33-4.32-4.32V627.34c0-3,1-4.65,4.32-4.65,3,0,4,1.66,4,4.65v27.88C853.27,633,870.87,622,895.76,622c5.32,0,6.31,1,6.31,4,0,3.65-2.32,3.65-8.3,4-24.56.67-40.5,12.29-51.12,38.18Z"/>
<path class="cls-1" d="M995.34,629c-14.93,0-26.22,4-35.52,10.62-4.64,3.32-6.63,6-8.62,6a4.28,4.28,0,0,1-4-4c0-2,3-5,8.3-8.63,10.62-7.3,23.24-11.62,39.83-11.62,20.25,0,34.2,6.31,41.5,18.26,5,8,7.3,19.58,7.3,35.52v89.29c0,3-1.33,4.32-4,4.32-3,0-4.32-1.33-4.32-4.32V751.16c-13.27,12.61-29.54,18.92-49.13,18.92-30.87,0-47.13-16.27-47.13-38.51,0-30.21,29.87-43.82,96.26-48.8v-6.64C1035.84,644.93,1025.22,629,995.34,629ZM948.87,731.24c0,17.59,12.28,31.2,38.84,31.2,18.26,0,34.52-6.64,48.13-19.91V689.74C974.1,695.39,948.87,706.34,948.87,731.24Z"/>
<path class="cls-1" d="M1190.2,757.46c0,2-2.33,4-5.65,6a48.71,48.71,0,0,1-24.56,6.64c-13,0-24.57-5-30.54-15.6-5.64-10.3-5.64-22.25-5.64-37.18v-84h-26.56c-3,0-4.32-1.32-4.32-4,0-2.32,1.33-3.65,4.32-3.65h26.56V581.86c0-3,1.33-4.31,4-4.31,3,0,4.32,1.32,4.32,4.31v43.82h49.45c3,0,4.32,1.33,4.32,4,0,2.33-1.33,3.65-4.32,3.65h-49.45v84.32c0,12,0,24.23,4.64,32.53,4,7.3,11.62,12.28,23.9,12.28a38.25,38.25,0,0,0,19.92-5.31c3.32-2,4.65-3.32,6.31-3.32S1190.2,755.8,1190.2,757.46Z"/>
<path class="cls-1" d="M1250.94,577.55c-5,0-8-3.32-8-8s3-8,8-8,8,3.32,8,8S1255.92,577.55,1250.94,577.55Zm4,186.88c0,3-1.32,4.32-4,4.32-3,0-4.32-1.33-4.32-4.32V627c0-3,1.33-4.32,4-4.32,3,0,4.31,1.33,4.31,4.32Z"/>
<path class="cls-1" d="M1521.47,627.34v18.92c8.29-13.28,25.89-24.9,50.78-24.9,18.59,0,33.2,6,41.83,17.93q10,13.44,10,39.83v85.31c0,3-1.33,4.32-4,4.32-3,0-4.32-1.33-4.32-4.32V680.12c0-12.62-1.66-26.22-9-36.18S1587.86,629,1571.92,629c-25.23,0-42.49,13.28-50.45,27.88V764.43c0,3-1.33,4.32-4,4.32-3,0-4.31-1.33-4.31-4.32V627.34c0-3,1-4.65,4.31-4.65C1520.47,622.69,1521.47,624.35,1521.47,627.34Z"/>
<path class="cls-1" d="M1452.89,663.82,1384,538.38,1315.2,663.82a75.53,75.53,0,1,0,137.69,0ZM1448,708.39c0,.09,0,.17,0,.25a61.68,61.68,0,0,1-17.13,33l0,0c-1.27,1.26-2.6,2.46-4,3.62l-.23.2c-1.31,1.1-2.68,2.12-4.08,3.11-.22.15-.41.33-.63.48l0,0a61.75,61.75,0,0,1-35.56,10.82h-.25c-5.24-.12-5.22-7.88,0-8.23q.7-.06,1.44-.06c12.71.13,22.92-3.86,30.8-10.08,1-.77,1.94-1.56,2.84-2.4s1.93-1.52,2.86-2.34c7.55-6.62,13.34-15.93,15.53-28.45.08-.48.2-.95.31-1.4C1441.21,701.83,1448.84,703.22,1448,708.39Z"/>
<path class="cls-1" d="M1430.86,741.66l0,0q-1.89,1.9-3.94,3.65C1428.26,744.12,1429.59,742.92,1430.86,741.66Z"/>
<path class="cls-1" d="M1421.94,749.07c.22-.15.41-.33.63-.48l-.65.46Z"/>
<path class="cls-1" d="M1661.88,594.77c0,.56-.41.85-1.49.85a2.36,2.36,0,0,1-2.38-1.45l-5.36-7.69a16,16,0,0,1-2.34.14,14.65,14.65,0,0,1-1.82-.11v7.81c0,.86-.48,1.3-1.53,1.3s-1.52-.44-1.52-1.3V573.65c0-1,0-1.86,1.6-2.23A16.61,16.61,0,0,1,1651,571c5.84,0,9.67,2.64,9.67,7.62a7.23,7.23,0,0,1-5,7.1l5.24,7.22C1661.69,594.06,1661.88,594.43,1661.88,594.77Zm-11.46-10.86c4.61,0,7-1.93,7-5.13,0-3.42-2.53-5-6.44-5a12.56,12.56,0,0,0-2.41.22v9.82A16.56,16.56,0,0,0,1650.42,583.91Z"/>
<path class="cls-1" d="M1653,606.21a22.3,22.3,0,1,1,22.3-22.3A22.32,22.32,0,0,1,1653,606.21Zm0-42.41a20.11,20.11,0,1,0,20.11,20.11A20.13,20.13,0,0,0,1653,563.8Z"/></svg>
