<svg id="Layer_1" data-name="Layer 1" xmlns="http://www.w3.org/2000/svg" viewBox="300 0 1920 1080">
<path class="cls-1" d="M1452.89,663.82,1384,538.38,1315.2,663.82a75.53,75.53,0,1,0,137.69,0ZM1448,708.39c0,.09,0,.17,0,.25a61.68,61.68,0,0,1-17.13,33l0,0c-1.27,1.26-2.6,2.46-4,3.62l-.23.2c-1.31,1.1-2.68,2.12-4.08,3.11-.22.15-.41.33-.63.48l0,0a61.75,61.75,0,0,1-35.56,10.82h-.25c-5.24-.12-5.22-7.88,0-8.23q.7-.06,1.44-.06c12.71.13,22.92-3.86,30.8-10.08,1-.77,1.94-1.56,2.84-2.4s1.93-1.52,2.86-2.34c7.55-6.62,13.34-15.93,15.53-28.45.08-.48.2-.95.31-1.4C1441.21,701.83,1448.84,703.22,1448,708.39Z"/>
</svg>
