<svg width="1019" height="413" viewBox="0 0 1019 413" fill="none" xmlns="http://www.w3.org/2000/svg">
<path d="M191.58 62.5198C191.58 44.8423 206.768 32.8948 229.673 32.8948C240.878 32.8948 251.078 35.3848 259.793 41.1073C264.773 44.3473 266.768 47.3323 266.768 50.0698C266.768 53.0698 264.518 57.0448 260.295 57.0448C258.3 57.0448 256.545 55.5448 252.045 52.8148C245.141 48.3758 237.1 46.0313 228.893 46.0648C214.455 46.0648 206.49 52.8148 206.49 61.7548C206.49 86.1523 268.23 77.1898 268.23 114.532C268.23 133.455 252.3 146.152 228.398 146.152C216.195 146.152 204.99 142.665 195.78 136.192C191.55 133.455 189.555 130.71 189.555 127.942C189.555 124.942 192.045 120.975 196.305 120.975C198.3 120.975 200.055 122.715 203.805 124.957C211.777 130.207 219.24 132.922 228.705 132.922C243.398 132.922 253.103 125.955 253.103 115.245C253.073 89.4223 191.58 98.6173 191.58 62.5198Z" fill="#87CEEB"/>
<path d="M325.77 40.6124V50.8198C331.77 40.8598 344.19 33.1423 361.62 33.1423C379.792 33.1423 390.495 41.3924 395.475 55.0499C401.947 42.1049 415.642 33.1423 433.815 33.1423C447.757 33.1423 457.965 38.3923 463.942 47.0848C468.675 54.0523 471.165 63.7648 471.165 76.7098V138.457C471.165 142.957 468.665 145.207 463.665 145.207C458.415 145.207 455.947 142.957 455.947 138.457V78.9223C455.947 70.6723 454.702 62.2423 450.217 56.0173C445.987 49.5448 438.765 46.5598 429.06 46.5598C414.862 46.5598 404.407 53.5274 398.685 63.4874V138.427C398.685 142.927 396.185 145.177 391.185 145.177C385.935 145.177 383.467 142.927 383.467 138.427V76.7098C383.467 68.4973 381.727 61.2748 378.217 56.0473C373.717 49.8223 366.262 46.5899 356.805 46.5899C342.615 46.5899 331.905 53.8048 326.43 63.5173V138.457C326.43 142.957 323.93 145.207 318.93 145.207C313.68 145.207 311.212 142.957 311.212 138.457V40.6124C311.212 36.1124 313.462 33.8624 318.712 33.8624C323.962 33.8624 326.017 36.3824 325.77 40.6124Z" fill="#87CEEB"/>
<path d="M556.05 46.0875C547.52 45.9633 539.136 48.3073 531.907 52.8375C528.157 55.32 526.425 57.0675 524.182 57.0675C520.2 57.0675 517.71 52.8375 517.71 49.845C517.71 47.355 519.705 44.865 524.932 41.6325C533.647 36.15 544.35 32.9175 557.295 32.9175C572.985 32.9175 584.182 37.65 590.407 46.6125C594.645 52.6125 596.632 61.2975 596.632 73.5V138.48C596.632 142.98 594.645 145.23 589.41 145.23C584.685 145.23 582.442 143.482 582.442 139.98V132.232C573.442 141.442 562.028 145.92 547.838 145.92C524.933 145.92 512.235 133.477 512.235 115.552C512.235 92.895 533.145 81.69 581.692 77.955V73.9725C581.692 55.5525 574.725 46.0875 556.05 46.0875ZM528.667 114.555C528.667 125.01 535.89 133.222 552.067 133.222C563.025 133.222 572.985 129.24 581.692 121.522V88.41C544.605 92.145 528.667 98.8725 528.667 114.555Z" fill="#87CEEB"/>
<path d="M661.86 138.457C661.86 142.957 659.36 145.207 654.36 145.207C649.11 145.207 646.642 142.957 646.642 138.457V40.6124C646.642 36.6299 648.142 33.8624 654.36 33.8624C660.09 33.8624 661.11 36.3524 661.11 39.3374V55.0199C667.582 40.5824 679.29 33.3599 692.977 33.3599C697.477 33.3599 700.2 34.8599 700.2 40.3349C700.2 46.3349 697.2 46.8074 691.485 47.3024C684.517 47.8049 670.822 48.0524 661.86 68.9624V138.457Z" fill="#87CEEB"/>
<path d="M802.02 134.722C802.02 136.71 800.52 138.952 797.288 140.947C791.813 144.18 784.343 146.197 776.625 146.197C764.678 146.197 754.965 141.465 750.233 132.502C745.733 124.252 745.508 114.825 745.508 103.62V49.0799H729.323C724.823 49.0799 722.573 46.8299 722.573 42.6074C722.573 38.3849 724.823 36.1274 729.323 36.1274H745.508V6.74988C745.508 2.24988 747.998 -0.00012207 753.225 -0.00012207C758.225 -0.00012207 760.725 2.24988 760.725 6.74988V36.1274H792.338C796.838 36.1274 799.088 38.3774 799.088 42.6074C799.088 46.8374 796.838 49.0799 792.338 49.0799H760.725V103.597C760.725 111.097 760.725 119.535 763.725 125.257C766.463 129.99 771.225 132.975 778.665 132.975C782.899 132.867 787.059 131.844 790.86 129.975C793.35 128.73 794.843 127.725 796.335 127.725C800.28 127.747 802.02 132.232 802.02 134.722Z" fill="#87CEEB"/>
<path d="M83.16 359.745C83.16 361.995 82.1625 362.985 80.16 362.985C77.91 362.985 76.92 361.987 76.92 359.745V296.512C76.92 287.047 75.675 276.847 70.17 269.377C64.665 261.907 56.025 258.172 44.0775 258.172C25.155 258.172 12.21 268.132 6.2325 279.082V359.745C6.2325 361.995 5.235 362.985 3.2325 362.985C0.982498 362.985 0 361.987 0 359.745V193.44C0 191.19 0.9975 190.207 3 190.207C5.25 190.207 6.23998 191.205 6.23998 193.44V271.117C12.465 261.157 25.6575 252.442 44.3325 252.442C58.275 252.442 69.225 256.942 75.6975 265.89C80.6975 272.61 83.1975 282.567 83.1975 295.762L83.16 359.745Z" fill="#87CEEB"/>
<path d="M217.853 256.177C217.72 258.117 217.386 260.037 216.855 261.907C205.403 309.705 174.278 377.407 142.163 409.537C140.423 411.285 138.93 412.777 137.183 412.777C136.403 412.728 135.669 412.396 135.116 411.844C134.564 411.291 134.232 410.557 134.183 409.777C134.183 408.03 136.17 406.537 137.663 405.045C149.37 393.84 162.315 375.172 169.035 362.97L124.238 258.922C123.71 257.827 123.373 256.65 123.24 255.442C123.24 254.197 123.99 253.447 125.73 253.447C127.98 253.447 128.97 254.197 130.463 257.685L173.28 357.015C186.48 333.12 204.405 290.047 210.878 260.422C211.875 255.69 212.618 253.447 215.378 253.447C217.103 253.44 217.853 254.422 217.853 256.177Z" fill="#87CEEB"/>
<path d="M303.24 252.442C315.69 252.442 326.392 255.93 335.602 262.905V193.44C335.602 191.19 336.6 190.207 338.602 190.207C340.852 190.207 341.835 191.205 341.835 193.44V359.745C341.835 361.995 340.837 362.985 338.835 362.985C336.585 362.985 335.595 361.987 335.595 359.745V349.792C326.137 359.25 314.437 363.982 300.742 363.982C271.117 363.982 251.197 341.572 251.197 308.482C251.205 274.605 272.122 252.442 303.24 252.442ZM302.992 258.172C275.85 258.172 258.18 277.837 258.18 308.212C258.18 338.587 275.107 358.252 300.997 358.252C313.942 358.252 325.395 353.272 335.602 343.567V269.872C326.457 262.241 314.904 258.096 302.992 258.172Z" fill="#87CEEB"/>
<path d="M403.815 359.745C403.815 361.995 402.818 362.985 400.815 362.985C398.565 362.985 397.575 361.987 397.575 359.745V256.927C397.575 254.677 398.325 253.44 400.815 253.44C403.065 253.44 403.815 254.685 403.815 256.927V277.837C411.78 261.172 424.98 252.922 443.648 252.922C447.638 252.922 448.38 253.672 448.38 255.922C448.38 258.66 446.64 258.66 442.155 258.922C423.735 259.425 411.78 268.14 403.815 287.557V359.745Z" fill="#87CEEB"/>
<path d="M518.333 258.172C507.135 258.172 498.668 261.172 491.693 266.137C488.213 268.627 486.72 270.637 485.228 270.637C484.448 270.588 483.714 270.256 483.161 269.704C482.609 269.151 482.277 268.417 482.228 267.637C482.228 266.137 484.478 263.887 488.453 261.165C496.418 255.69 505.883 252.45 518.325 252.45C533.513 252.45 543.975 257.182 549.45 266.145C553.2 272.145 554.925 280.83 554.925 292.785V359.752C554.925 362.002 553.928 362.992 551.925 362.992C549.675 362.992 548.685 361.995 548.685 359.752V349.792C538.733 359.25 526.53 363.982 511.838 363.982C488.685 363.982 476.49 351.78 476.49 335.1C476.49 312.442 498.893 302.235 548.685 298.5V293.52C548.708 270.12 540.743 258.172 518.333 258.172ZM483.48 334.852C483.48 348.045 492.69 358.252 512.61 358.252C526.305 358.252 538.5 353.272 548.708 343.32V303.727C502.403 307.965 483.48 316.177 483.48 334.852Z" fill="#87CEEB"/>
<path d="M664.478 354.517C664.478 356.017 662.73 357.517 660.24 359.017C654.65 362.28 648.293 363.999 641.82 363.997C632.07 363.997 623.393 360.247 618.915 352.297C614.685 344.572 614.685 335.61 614.685 324.412V261.412H594.765C592.515 261.412 591.525 260.422 591.525 258.412C591.525 256.672 592.523 255.675 594.765 255.675H614.685V222.817C614.685 220.567 615.683 219.585 617.685 219.585C619.935 219.585 620.925 220.575 620.925 222.817V255.682H658.013C660.263 255.682 661.253 256.68 661.253 258.682C661.253 260.43 660.255 261.42 658.013 261.42H620.925V324.66C620.925 333.66 620.925 342.832 624.405 349.057C627.405 354.532 633.12 358.267 642.33 358.267C647.581 358.332 652.748 356.955 657.27 354.285C659.76 352.785 660.758 351.795 662.003 351.795C663.248 351.795 664.478 353.272 664.478 354.517Z" fill="#87CEEB"/>
<path d="M710.032 219.585C706.282 219.585 704.032 217.095 704.032 213.585C704.032 210.075 706.282 207.585 710.032 207.585C713.782 207.585 716.032 210.075 716.032 213.585C716.032 217.095 713.767 219.585 710.032 219.585ZM713.032 359.745C713.032 361.995 712.042 362.985 710.032 362.985C707.782 362.985 706.793 361.987 706.793 359.745V256.672C706.793 254.422 707.79 253.432 709.793 253.432C712.043 253.432 713.025 254.43 713.025 256.672L713.032 359.745Z" fill="#87CEEB"/>
<path d="M912.93 256.927V271.117C919.148 261.157 932.348 252.442 951.015 252.442C964.958 252.442 975.915 256.942 982.388 265.89C987.388 272.61 989.888 282.567 989.888 295.762V359.745C989.888 361.995 988.89 362.985 986.888 362.985C984.638 362.985 983.648 361.987 983.648 359.745V296.512C983.648 287.047 982.403 276.847 976.898 269.377C971.393 261.907 962.723 258.172 950.768 258.172C931.845 258.172 918.9 268.132 912.93 279.082V359.745C912.93 361.995 911.933 362.985 909.93 362.985C907.68 362.985 906.698 361.987 906.698 359.745V256.927C906.698 254.677 907.448 253.44 909.93 253.44C912.18 253.44 912.93 254.685 912.93 256.927Z" fill="#87CEEB"/>
<path d="M861.495 284.287L809.828 190.207L758.228 284.287C754.334 292.915 752.665 302.38 753.372 311.819C754.079 321.258 757.14 330.369 762.275 338.32C767.411 346.272 774.456 352.809 782.769 357.336C791.082 361.863 800.396 364.235 809.861 364.235C819.327 364.235 828.641 361.863 836.954 357.336C845.266 352.809 852.312 346.272 857.447 338.32C862.582 330.369 865.643 321.258 866.351 311.819C867.058 302.38 865.388 292.915 861.495 284.287ZM857.828 317.715C857.828 317.782 857.828 317.842 857.828 317.902C856.193 327.277 851.706 335.92 844.98 342.652C844.028 343.597 843.03 344.497 841.98 345.367L841.808 345.517C840.825 346.342 839.798 347.107 838.748 347.85C838.583 347.962 838.44 348.097 838.275 348.21C830.43 353.59 821.118 356.423 811.605 356.325H811.418C807.488 356.235 807.503 350.415 811.418 350.152C811.768 350.122 812.128 350.107 812.498 350.107C822.03 350.205 829.688 347.212 835.598 342.547C836.348 341.97 837.053 341.377 837.728 340.747C838.403 340.117 839.175 339.607 839.873 338.992C845.535 334.027 849.878 327.045 851.52 317.655C851.58 317.295 851.67 316.942 851.753 316.605C852.735 312.795 858.458 313.837 857.828 317.715Z" fill="#87CEEB"/>
<path d="M1018.24 232.5C1018.24 232.92 1017.93 233.137 1017.12 233.137C1016.75 233.169 1016.37 233.081 1016.05 232.885C1015.73 232.69 1015.48 232.397 1015.34 232.05L1011.32 226.282C1010.73 226.36 1010.15 226.395 1009.56 226.387C1009.1 226.388 1008.65 226.361 1008.2 226.305V232.162C1008.2 232.807 1007.83 233.137 1007.05 233.137C1006.26 233.137 1005.91 232.807 1005.91 232.162V216.66C1005.91 215.91 1005.91 215.265 1007.11 214.987C1008.08 214.764 1009.08 214.658 1010.08 214.672C1014.46 214.672 1017.33 216.652 1017.33 220.387C1017.37 221.561 1017.02 222.715 1016.34 223.676C1015.67 224.636 1014.7 225.351 1013.58 225.712L1017.51 231.127C1018.1 231.967 1018.24 232.245 1018.24 232.5ZM1009.64 224.355C1013.1 224.355 1014.89 222.907 1014.89 220.507C1014.89 217.942 1012.99 216.757 1010.06 216.757C1009.46 216.754 1008.85 216.809 1008.25 216.922V224.287C1008.72 224.336 1009.18 224.358 1009.64 224.355Z" fill="#87CEEB"/>
</svg>
